# MagicaVoxel @ Ephtracy

# group
o 

# material
mtllib obstacle1.mtl
usemtl palette

# normals
vn -1 0 0
vn 1 0 0
vn 0 0 1
vn 0 0 -1
vn 0 -1 0
vn 0 1 0

# texcoords
vt 0.607422 0.5
vt 0.619141 0.5
vt 0.958984 0.5

# verts
v -0.7 0 0.1
v -0.7 0 -0.1
v -0.7 0.3 0.2
v -0.7 0.3 0.1
v -0.7 0.5 0.2
v -0.7 0.5 0.1
v -0.7 0.7 0.2
v -0.7 0.7 0.1
v -0.7 0.9 0.2
v -0.7 0.9 0.1
v -0.7 1.1 0.2
v -0.7 1.1 0.1
v -0.7 1.3 0.2
v -0.7 1.3 0.1
v -0.7 1.4 0.1
v -0.7 1.4 -0.1
v 0.5 0 0.1
v 0.5 0 -0.1
v 0.5 0.3 0.1
v 0.5 0.5 0.1
v 0.5 0.7 0.1
v 0.5 0.9 0.1
v 0.5 1.1 0.1
v 0.5 1.3 0.1
v 0.5 1.4 0.1
v 0.5 1.4 -0.1
v -0.5 0 0.1
v -0.5 0 -0.1
v -0.5 0.3 0.1
v -0.5 0.5 0.1
v -0.5 0.7 0.1
v -0.5 0.9 0.1
v -0.5 1.1 0.1
v -0.5 1.3 0.1
v -0.5 1.4 0.1
v -0.5 1.4 -0.1
v 0.7 0 0.1
v 0.7 0 -0.1
v 0.7 0.3 0.2
v 0.7 0.3 0.1
v 0.7 0.5 0.2
v 0.7 0.5 0.1
v 0.7 0.7 0.2
v 0.7 0.7 0.1
v 0.7 0.9 0.2
v 0.7 0.9 0.1
v 0.7 1.1 0.2
v 0.7 1.1 0.1
v 0.7 1.3 0.2
v 0.7 1.3 0.1
v 0.7 1.4 0.1
v 0.7 1.4 -0.1
v -0.7 0.3 0.2
v -0.7 0.5 0.2
v -0.7 0.7 0.2
v -0.7 0.9 0.2
v -0.7 1.1 0.2
v -0.7 1.3 0.2
v -0.6 0.3 0.2
v -0.6 0.5 0.2
v -0.5 0.7 0.2
v -0.5 0.9 0.2
v -0.5 1.1 0.2
v -0.5 1.3 0.2
v -0.3 0.3 0.2
v -0.3 0.5 0.2
v -0.2 0.7 0.2
v -0.2 0.9 0.2
v -0.2 1.1 0.2
v -0.2 1.3 0.2
v 0 0.3 0.2
v 0 0.5 0.2
v 0.1 0.7 0.2
v 0.1 0.9 0.2
v 0.1 1.1 0.2
v 0.1 1.3 0.2
v 0.3 0.3 0.2
v 0.3 0.5 0.2
v 0.4 0.7 0.2
v 0.4 0.9 0.2
v 0.4 1.1 0.2
v 0.4 1.3 0.2
v 0.6 0.3 0.2
v 0.6 0.5 0.2
v 0.7 0.3 0.2
v 0.7 0.5 0.2
v 0.7 0.7 0.2
v 0.7 0.9 0.2
v 0.7 1.1 0.2
v 0.7 1.3 0.2
v -0.7 0 0.1
v -0.7 0.3 0.1
v -0.7 0.5 0.1
v -0.7 0.7 0.1
v -0.7 0.9 0.1
v -0.7 1.1 0.1
v -0.7 1.3 0.1
v -0.7 1.4 0.1
v -0.6 0.3 0.1
v -0.6 0.5 0.1
v -0.5 0 0.1
v -0.5 0.3 0.1
v -0.5 0.5 0.1
v -0.5 0.7 0.1
v -0.5 0.9 0.1
v -0.5 1.1 0.1
v -0.5 1.3 0.1
v -0.5 1.4 0.1
v 0.5 0 0.1
v 0.5 0.3 0.1
v 0.5 0.5 0.1
v 0.5 0.7 0.1
v 0.5 0.9 0.1
v 0.5 1.1 0.1
v 0.5 1.3 0.1
v 0.5 1.4 0.1
v 0.6 0.3 0.1
v 0.6 0.5 0.1
v 0.7 0 0.1
v 0.7 0.3 0.1
v 0.7 0.5 0.1
v 0.7 0.7 0.1
v 0.7 0.9 0.1
v 0.7 1.1 0.1
v 0.7 1.3 0.1
v 0.7 1.4 0.1
v -0.5 0.3 0.1
v -0.5 0.5 0.1
v -0.5 0.7 0.1
v -0.5 0.9 0.1
v -0.5 1.1 0.1
v -0.5 1.3 0.1
v -0.3 0.3 0.1
v -0.3 0.5 0.1
v -0.2 0.7 0.1
v -0.2 0.9 0.1
v -0.2 1.1 0.1
v -0.2 1.3 0.1
v 0 0.3 0.1
v 0 0.5 0.1
v 0.1 0.7 0.1
v 0.1 0.9 0.1
v 0.1 1.1 0.1
v 0.1 1.3 0.1
v 0.3 0.3 0.1
v 0.3 0.5 0.1
v 0.4 0.7 0.1
v 0.4 0.9 0.1
v 0.4 1.1 0.1
v 0.4 1.3 0.1
v 0.5 0.3 0.1
v 0.5 0.5 0.1
v 0.5 0.7 0.1
v 0.5 0.9 0.1
v 0.5 1.1 0.1
v 0.5 1.3 0.1
v -0.7 0 -0.1
v -0.7 1.4 -0.1
v -0.5 0 -0.1
v -0.5 1.4 -0.1
v 0.5 0 -0.1
v 0.5 1.4 -0.1
v 0.7 0 -0.1
v 0.7 1.4 -0.1
v -0.7 0 0.1
v -0.5 0 0.1
v 0.5 0 0.1
v 0.7 0 0.1
v -0.7 0 -0.1
v -0.5 0 -0.1
v 0.5 0 -0.1
v 0.7 0 -0.1
v -0.7 0.3 0.2
v -0.6 0.3 0.2
v -0.3 0.3 0.2
v 0 0.3 0.2
v 0.3 0.3 0.2
v 0.6 0.3 0.2
v 0.7 0.3 0.2
v -0.7 0.3 0.1
v -0.6 0.3 0.1
v -0.5 0.3 0.1
v -0.3 0.3 0.1
v 0 0.3 0.1
v 0.3 0.3 0.1
v 0.5 0.3 0.1
v 0.6 0.3 0.1
v 0.7 0.3 0.1
v -0.7 0.7 0.2
v -0.5 0.7 0.2
v -0.2 0.7 0.2
v 0.1 0.7 0.2
v 0.4 0.7 0.2
v 0.7 0.7 0.2
v -0.7 0.7 0.1
v -0.5 0.7 0.1
v -0.2 0.7 0.1
v 0.1 0.7 0.1
v 0.4 0.7 0.1
v 0.5 0.7 0.1
v 0.7 0.7 0.1
v -0.7 1.1 0.2
v -0.5 1.1 0.2
v -0.2 1.1 0.2
v 0.1 1.1 0.2
v 0.4 1.1 0.2
v 0.7 1.1 0.2
v -0.7 1.1 0.1
v -0.5 1.1 0.1
v -0.2 1.1 0.1
v 0.1 1.1 0.1
v 0.4 1.1 0.1
v 0.5 1.1 0.1
v 0.7 1.1 0.1
v -0.7 0.5 0.2
v -0.6 0.5 0.2
v -0.3 0.5 0.2
v 0 0.5 0.2
v 0.3 0.5 0.2
v 0.6 0.5 0.2
v 0.7 0.5 0.2
v -0.7 0.5 0.1
v -0.6 0.5 0.1
v -0.5 0.5 0.1
v -0.3 0.5 0.1
v 0 0.5 0.1
v 0.3 0.5 0.1
v 0.5 0.5 0.1
v 0.6 0.5 0.1
v 0.7 0.5 0.1
v -0.7 0.9 0.2
v -0.5 0.9 0.2
v -0.2 0.9 0.2
v 0.1 0.9 0.2
v 0.4 0.9 0.2
v 0.7 0.9 0.2
v -0.7 0.9 0.1
v -0.5 0.9 0.1
v -0.2 0.9 0.1
v 0.1 0.9 0.1
v 0.4 0.9 0.1
v 0.5 0.9 0.1
v 0.7 0.9 0.1
v -0.7 1.3 0.2
v -0.5 1.3 0.2
v -0.2 1.3 0.2
v 0.1 1.3 0.2
v 0.4 1.3 0.2
v 0.7 1.3 0.2
v -0.7 1.3 0.1
v -0.5 1.3 0.1
v -0.2 1.3 0.1
v 0.1 1.3 0.1
v 0.4 1.3 0.1
v 0.5 1.3 0.1
v 0.7 1.3 0.1
v -0.7 1.4 0.1
v -0.5 1.4 0.1
v 0.5 1.4 0.1
v 0.7 1.4 0.1
v -0.7 1.4 -0.1
v -0.5 1.4 -0.1
v 0.5 1.4 -0.1
v 0.7 1.4 -0.1

# faces
f 4/1/1 2/1/1 1/1/1
f 5/3/1 4/3/1 3/3/1
f 6/1/1 2/1/1 4/1/1
f 6/3/1 4/3/1 5/3/1
f 8/1/1 2/1/1 6/1/1
f 9/3/1 8/3/1 7/3/1
f 10/1/1 2/1/1 8/1/1
f 10/3/1 8/3/1 9/3/1
f 12/1/1 2/1/1 10/1/1
f 13/2/1 12/2/1 11/2/1
f 14/1/1 2/1/1 12/1/1
f 14/2/1 12/2/1 13/2/1
f 15/1/1 2/1/1 14/1/1
f 16/1/1 2/1/1 15/1/1
f 19/1/1 18/1/1 17/1/1
f 20/1/1 18/1/1 19/1/1
f 21/1/1 18/1/1 20/1/1
f 22/1/1 18/1/1 21/1/1
f 23/1/1 18/1/1 22/1/1
f 24/1/1 18/1/1 23/1/1
f 25/1/1 18/1/1 24/1/1
f 26/1/1 18/1/1 25/1/1
f 27/1/2 28/1/2 29/1/2
f 29/1/2 28/1/2 30/1/2
f 30/1/2 28/1/2 31/1/2
f 31/1/2 28/1/2 32/1/2
f 32/1/2 28/1/2 33/1/2
f 33/1/2 28/1/2 34/1/2
f 34/1/2 28/1/2 35/1/2
f 35/1/2 28/1/2 36/1/2
f 37/1/2 38/1/2 40/1/2
f 39/2/2 40/2/2 41/2/2
f 40/1/2 38/1/2 42/1/2
f 41/2/2 40/2/2 42/2/2
f 42/1/2 38/1/2 44/1/2
f 43/3/2 44/3/2 45/3/2
f 44/1/2 38/1/2 46/1/2
f 45/3/2 44/3/2 46/3/2
f 46/1/2 38/1/2 48/1/2
f 47/2/2 48/2/2 49/2/2
f 48/1/2 38/1/2 50/1/2
f 49/2/2 48/2/2 50/2/2
f 50/1/2 38/1/2 51/1/2
f 51/1/2 38/1/2 52/1/2
f 59/3/3 54/3/3 53/3/3
f 60/3/3 54/3/3 59/3/3
f 61/3/3 56/3/3 55/3/3
f 62/3/3 56/3/3 61/3/3
f 63/2/3 58/2/3 57/2/3
f 64/2/3 58/2/3 63/2/3
f 65/2/3 60/2/3 59/2/3
f 66/2/3 60/2/3 65/2/3
f 67/2/3 62/2/3 61/2/3
f 68/2/3 62/2/3 67/2/3
f 69/3/3 64/3/3 63/3/3
f 70/3/3 64/3/3 69/3/3
f 71/3/3 66/3/3 65/3/3
f 72/3/3 66/3/3 71/3/3
f 73/3/3 68/3/3 67/3/3
f 74/3/3 68/3/3 73/3/3
f 75/2/3 70/2/3 69/2/3
f 76/2/3 70/2/3 75/2/3
f 77/2/3 72/2/3 71/2/3
f 78/2/3 72/2/3 77/2/3
f 79/2/3 74/2/3 73/2/3
f 80/2/3 74/2/3 79/2/3
f 81/3/3 76/3/3 75/3/3
f 82/3/3 76/3/3 81/3/3
f 83/3/3 78/3/3 77/3/3
f 84/3/3 78/3/3 83/3/3
f 85/2/3 84/2/3 83/2/3
f 86/2/3 84/2/3 85/2/3
f 87/3/3 80/3/3 79/3/3
f 88/3/3 80/3/3 87/3/3
f 89/2/3 82/2/3 81/2/3
f 90/2/3 82/2/3 89/2/3
f 99/1/3 92/1/3 91/1/3
f 100/1/3 94/1/3 93/1/3
f 101/1/3 99/1/3 91/1/3
f 102/1/3 99/1/3 101/1/3
f 103/1/3 94/1/3 100/1/3
f 104/1/3 94/1/3 103/1/3
f 105/1/3 96/1/3 95/1/3
f 106/1/3 96/1/3 105/1/3
f 107/1/3 98/1/3 97/1/3
f 108/1/3 98/1/3 107/1/3
f 117/1/3 110/1/3 109/1/3
f 118/1/3 112/1/3 111/1/3
f 119/1/3 117/1/3 109/1/3
f 120/1/3 117/1/3 119/1/3
f 121/1/3 112/1/3 118/1/3
f 122/1/3 112/1/3 121/1/3
f 123/1/3 114/1/3 113/1/3
f 124/1/3 114/1/3 123/1/3
f 125/1/3 116/1/3 115/1/3
f 126/1/3 116/1/3 125/1/3
f 127/2/4 128/2/4 133/2/4
f 133/2/4 128/2/4 134/2/4
f 129/2/4 130/2/4 135/2/4
f 135/2/4 130/2/4 136/2/4
f 131/3/4 132/3/4 137/3/4
f 137/3/4 132/3/4 138/3/4
f 133/3/4 134/3/4 139/3/4
f 139/3/4 134/3/4 140/3/4
f 135/3/4 136/3/4 141/3/4
f 141/3/4 136/3/4 142/3/4
f 137/2/4 138/2/4 143/2/4
f 143/2/4 138/2/4 144/2/4
f 139/2/4 140/2/4 145/2/4
f 145/2/4 140/2/4 146/2/4
f 141/2/4 142/2/4 147/2/4
f 147/2/4 142/2/4 148/2/4
f 143/3/4 144/3/4 149/3/4
f 149/3/4 144/3/4 150/3/4
f 145/3/4 146/3/4 151/3/4
f 151/3/4 146/3/4 152/3/4
f 147/3/4 148/3/4 153/3/4
f 153/3/4 148/3/4 154/3/4
f 149/2/4 150/2/4 155/2/4
f 155/2/4 150/2/4 156/2/4
f 157/1/4 158/1/4 159/1/4
f 159/1/4 158/1/4 160/1/4
f 161/1/4 162/1/4 163/1/4
f 163/1/4 162/1/4 164/1/4
f 169/1/5 166/1/5 165/1/5
f 170/1/5 166/1/5 169/1/5
f 171/1/5 168/1/5 167/1/5
f 172/1/5 168/1/5 171/1/5
f 180/3/5 174/3/5 173/3/5
f 181/2/5 175/2/5 174/2/5
f 181/3/5 174/3/5 180/3/5
f 182/2/5 175/2/5 181/2/5
f 183/3/5 176/3/5 175/3/5
f 183/2/5 175/2/5 182/2/5
f 184/2/5 177/2/5 176/2/5
f 184/3/5 176/3/5 183/3/5
f 185/3/5 178/3/5 177/3/5
f 185/2/5 177/2/5 184/2/5
f 186/3/5 178/3/5 185/3/5
f 187/2/5 179/2/5 178/2/5
f 187/3/5 178/3/5 186/3/5
f 188/2/5 179/2/5 187/2/5
f 195/3/5 190/3/5 189/3/5
f 196/2/5 191/2/5 190/2/5
f 196/3/5 190/3/5 195/3/5
f 197/3/5 192/3/5 191/3/5
f 197/2/5 191/2/5 196/2/5
f 198/2/5 193/2/5 192/2/5
f 198/3/5 192/3/5 197/3/5
f 199/3/5 194/3/5 193/3/5
f 199/2/5 193/2/5 198/2/5
f 200/3/5 194/3/5 199/3/5
f 201/3/5 194/3/5 200/3/5
f 208/2/5 203/2/5 202/2/5
f 209/3/5 204/3/5 203/3/5
f 209/2/5 203/2/5 208/2/5
f 210/2/5 205/2/5 204/2/5
f 210/3/5 204/3/5 209/3/5
f 211/3/5 206/3/5 205/3/5
f 211/2/5 205/2/5 210/2/5
f 212/2/5 207/2/5 206/2/5
f 212/3/5 206/3/5 211/3/5
f 213/2/5 207/2/5 212/2/5
f 214/2/5 207/2/5 213/2/5
f 215/3/6 216/3/6 222/3/6
f 216/2/6 217/2/6 223/2/6
f 222/3/6 216/3/6 223/3/6
f 223/2/6 217/2/6 224/2/6
f 217/3/6 218/3/6 225/3/6
f 224/2/6 217/2/6 225/2/6
f 218/2/6 219/2/6 226/2/6
f 225/3/6 218/3/6 226/3/6
f 219/3/6 220/3/6 227/3/6
f 226/2/6 219/2/6 227/2/6
f 227/3/6 220/3/6 228/3/6
f 220/2/6 221/2/6 229/2/6
f 228/3/6 220/3/6 229/3/6
f 229/2/6 221/2/6 230/2/6
f 231/3/6 232/3/6 237/3/6
f 232/2/6 233/2/6 238/2/6
f 237/3/6 232/3/6 238/3/6
f 233/3/6 234/3/6 239/3/6
f 238/2/6 233/2/6 239/2/6
f 234/2/6 235/2/6 240/2/6
f 239/3/6 234/3/6 240/3/6
f 235/3/6 236/3/6 241/3/6
f 240/2/6 235/2/6 241/2/6
f 241/3/6 236/3/6 242/3/6
f 242/3/6 236/3/6 243/3/6
f 244/2/6 245/2/6 250/2/6
f 245/3/6 246/3/6 251/3/6
f 250/2/6 245/2/6 251/2/6
f 246/2/6 247/2/6 252/2/6
f 251/3/6 246/3/6 252/3/6
f 247/3/6 248/3/6 253/3/6
f 252/2/6 247/2/6 253/2/6
f 248/2/6 249/2/6 254/2/6
f 253/3/6 248/3/6 254/3/6
f 254/2/6 249/2/6 255/2/6
f 255/2/6 249/2/6 256/2/6
f 257/1/6 258/1/6 261/1/6
f 261/1/6 258/1/6 262/1/6
f 259/1/6 260/1/6 263/1/6
f 263/1/6 260/1/6 264/1/6
