# MagicaVoxel @ Ephtracy

# group
o 

# material
mtllib woodlog.mtl
usemtl palette

# normals
vn -1 0 0
vn 1 0 0
vn 0 0 1
vn 0 0 -1
vn 0 -1 0
vn 0 1 0

# texcoords
vt 0.541016 0.5
vt 0.595703 0.5
vt 0.607422 0.5

# verts
v -1 0 0.3
v -1 0 -0.2
v -1 0.1 0.4
v -1 0.1 0.3
v -1 0.1 -0.2
v -1 0.1 -0.3
v -1 0.3 0.4
v -1 0.3 0.3
v -1 0.4 0.4
v -1 0.4 0.3
v -1 0.5 -0.2
v -1 0.5 -0.3
v -1 0.6 0.4
v -1 0.6 0.3
v -1 0.6 -0.2
v -1 0.6 -0.3
v -1 0.7 0.3
v -1 0.7 -0.2
v -0.9 0.1 0.3
v -0.9 0.1 -0.2
v -0.9 0.3 0.3
v -0.9 0.4 0.3
v -0.9 0.5 -0.2
v -0.9 0.6 0.3
v -0.9 0.6 -0.2
v 0.8 0.1 0.3
v 0.8 0.1 -0.2
v 0.8 0.6 0.3
v 0.8 0.6 -0.2
v 0.9 0 0.3
v 0.9 0 -0.2
v 0.9 0.1 0.4
v 0.9 0.1 0.3
v 0.9 0.1 -0.2
v 0.9 0.1 -0.3
v 0.9 0.6 0.4
v 0.9 0.6 0.3
v 0.9 0.6 -0.2
v 0.9 0.6 -0.3
v 0.9 0.7 0.3
v 0.9 0.7 -0.2
v -1 0.1 0.4
v -1 0.3 0.4
v -1 0.4 0.4
v -1 0.6 0.4
v -0.5 0.3 0.4
v -0.5 0.4 0.4
v -0.1 0.1 0.4
v -0.1 0.2 0.4
v 0.1 0.5 0.4
v 0.1 0.6 0.4
v 0.2 0.5 0.4
v 0.2 0.6 0.4
v 0.3 0.1 0.4
v 0.3 0.2 0.4
v 0.4 0.4 0.4
v 0.4 0.5 0.4
v 0.7 0.4 0.4
v 0.7 0.5 0.4
v 0.9 0.1 0.4
v 0.9 0.6 0.4
v -1 0 0.3
v -1 0.1 0.3
v -1 0.6 0.3
v -1 0.7 0.3
v -0.1 0.1 0.3
v 0.1 0.6 0.3
v 0.2 0.6 0.3
v 0.3 0.1 0.3
v 0.9 0 0.3
v 0.9 0.1 0.3
v 0.9 0.6 0.3
v 0.9 0.7 0.3
v -1 0.1 -0.2
v -1 0.5 -0.2
v -1 0.6 -0.2
v -0.9 0.1 -0.2
v -0.9 0.5 -0.2
v -0.9 0.6 -0.2
v 0.8 0.1 -0.2
v 0.8 0.6 -0.2
v 0.9 0.1 -0.2
v 0.9 0.6 -0.2
v -1 0.1 0.3
v -1 0.3 0.3
v -1 0.4 0.3
v -1 0.6 0.3
v -0.9 0.1 0.3
v -0.9 0.3 0.3
v -0.9 0.4 0.3
v -0.9 0.6 0.3
v 0.8 0.1 0.3
v 0.8 0.6 0.3
v 0.9 0.1 0.3
v 0.9 0.6 0.3
v -1 0 -0.2
v -1 0.1 -0.2
v -1 0.6 -0.2
v -1 0.7 -0.2
v -0.8 0.6 -0.2
v 0.2 0.6 -0.2
v 0.2 0.7 -0.2
v 0.5 0 -0.2
v 0.5 0.1 -0.2
v 0.5 0.6 -0.2
v 0.5 0.7 -0.2
v 0.7 0 -0.2
v 0.7 0.1 -0.2
v 0.9 0 -0.2
v 0.9 0.1 -0.2
v 0.9 0.6 -0.2
v 0.9 0.7 -0.2
v -1 0.1 -0.3
v -1 0.5 -0.3
v -1 0.6 -0.3
v -0.8 0.5 -0.3
v -0.8 0.6 -0.3
v -0.2 0.2 -0.3
v -0.2 0.3 -0.3
v 0.2 0.2 -0.3
v 0.2 0.3 -0.3
v 0.9 0.1 -0.3
v 0.9 0.6 -0.3
v -1 0 0.3
v 0.9 0 0.3
v 0.5 0 -0.1
v 0.7 0 -0.1
v -1 0 -0.2
v 0.5 0 -0.2
v 0.7 0 -0.2
v 0.9 0 -0.2
v -1 0.1 0.4
v -0.1 0.1 0.4
v 0.3 0.1 0.4
v 0.9 0.1 0.4
v -1 0.1 0.3
v -0.1 0.1 0.3
v 0.3 0.1 0.3
v 0.9 0.1 0.3
v -1 0.1 -0.2
v 0.5 0.1 -0.2
v 0.7 0.1 -0.2
v 0.9 0.1 -0.2
v -1 0.1 -0.3
v 0.9 0.1 -0.3
v -1 0.6 0.3
v -0.9 0.6 0.3
v 0.8 0.6 0.3
v 0.9 0.6 0.3
v -1 0.6 -0.2
v -0.9 0.6 -0.2
v 0.8 0.6 -0.2
v 0.9 0.6 -0.2
v -1 0.1 0.3
v -0.9 0.1 0.3
v 0.8 0.1 0.3
v 0.9 0.1 0.3
v -1 0.1 -0.2
v -0.9 0.1 -0.2
v 0.8 0.1 -0.2
v 0.9 0.1 -0.2
v -1 0.6 0.4
v 0.1 0.6 0.4
v 0.2 0.6 0.4
v 0.9 0.6 0.4
v -1 0.6 0.3
v 0.1 0.6 0.3
v 0.2 0.6 0.3
v 0.9 0.6 0.3
v -1 0.6 -0.2
v -0.8 0.6 -0.2
v 0.2 0.6 -0.2
v 0.5 0.6 -0.2
v 0.9 0.6 -0.2
v -1 0.6 -0.3
v -0.8 0.6 -0.3
v 0.9 0.6 -0.3
v -1 0.7 0.3
v 0.9 0.7 0.3
v 0.6 0.7 0.2
v 0.8 0.7 0.2
v -0.5 0.7 0.1
v -0.1 0.7 0.1
v 0.6 0.7 0.1
v 0.8 0.7 0.1
v -0.5 0.7 0
v -0.1 0.7 0
v 0.2 0.7 -0.1
v 0.5 0.7 -0.1
v -1 0.7 -0.2
v 0.2 0.7 -0.2
v 0.5 0.7 -0.2
v 0.9 0.7 -0.2

# faces
f 4/3/1 2/3/1 1/3/1
f 5/3/1 2/3/1 4/3/1
f 7/3/1 4/3/1 3/3/1
f 8/3/1 4/3/1 7/3/1
f 9/2/1 8/2/1 7/2/1
f 10/2/1 8/2/1 9/2/1
f 11/3/1 6/3/1 5/3/1
f 12/3/1 6/3/1 11/3/1
f 13/3/1 10/3/1 9/3/1
f 14/3/1 10/3/1 13/3/1
f 15/2/1 12/2/1 11/2/1
f 16/2/1 12/2/1 15/2/1
f 17/3/1 15/3/1 14/3/1
f 18/3/1 15/3/1 17/3/1
f 21/1/1 20/1/1 19/1/1
f 22/1/1 20/1/1 21/1/1
f 23/1/1 20/1/1 22/1/1
f 24/1/1 23/1/1 22/1/1
f 25/1/1 23/1/1 24/1/1
f 26/1/2 27/1/2 28/1/2
f 28/1/2 27/1/2 29/1/2
f 30/3/2 31/3/2 33/3/2
f 33/3/2 31/3/2 34/3/2
f 32/3/2 33/3/2 36/3/2
f 36/3/2 33/3/2 37/3/2
f 34/3/2 35/3/2 38/3/2
f 38/3/2 35/3/2 39/3/2
f 37/3/2 38/3/2 40/3/2
f 40/3/2 38/3/2 41/3/2
f 46/3/3 43/3/3 42/3/3
f 46/2/3 44/2/3 43/2/3
f 47/3/3 45/3/3 44/3/3
f 47/2/3 44/2/3 46/2/3
f 48/3/3 46/3/3 42/3/3
f 48/3/3 47/3/3 46/3/3
f 49/3/3 47/3/3 48/3/3
f 50/3/3 45/3/3 47/3/3
f 50/3/3 47/3/3 49/3/3
f 51/3/3 45/3/3 50/3/3
f 52/3/3 50/3/3 49/3/3
f 52/2/3 51/2/3 50/2/3
f 53/2/3 51/2/3 52/2/3
f 54/2/3 49/2/3 48/2/3
f 55/3/3 52/3/3 49/3/3
f 55/2/3 49/2/3 54/2/3
f 55/3/3 53/3/3 52/3/3
f 56/3/3 55/3/3 54/3/3
f 56/3/3 53/3/3 55/3/3
f 57/3/3 53/3/3 56/3/3
f 58/3/3 56/3/3 54/3/3
f 58/2/3 57/2/3 56/2/3
f 59/3/3 53/3/3 57/3/3
f 59/2/3 57/2/3 58/2/3
f 60/3/3 58/3/3 54/3/3
f 60/3/3 59/3/3 58/3/3
f 61/3/3 53/3/3 59/3/3
f 61/3/3 59/3/3 60/3/3
f 66/3/3 63/3/3 62/3/3
f 67/3/3 65/3/3 64/3/3
f 68/3/3 65/3/3 67/3/3
f 69/3/3 66/3/3 62/3/3
f 70/3/3 69/3/3 62/3/3
f 71/3/3 69/3/3 70/3/3
f 72/3/3 65/3/3 68/3/3
f 73/3/3 65/3/3 72/3/3
f 77/3/3 75/3/3 74/3/3
f 78/2/3 76/2/3 75/2/3
f 78/3/3 75/3/3 77/3/3
f 79/2/3 76/2/3 78/2/3
f 82/3/3 81/3/3 80/3/3
f 83/3/3 81/3/3 82/3/3
f 84/3/4 85/3/4 88/3/4
f 85/2/4 86/2/4 89/2/4
f 88/3/4 85/3/4 89/3/4
f 86/3/4 87/3/4 90/3/4
f 89/2/4 86/2/4 90/2/4
f 90/3/4 87/3/4 91/3/4
f 92/3/4 93/3/4 94/3/4
f 94/3/4 93/3/4 95/3/4
f 98/3/4 99/3/4 100/3/4
f 100/3/4 99/3/4 101/3/4
f 101/3/4 99/3/4 102/3/4
f 96/3/4 97/3/4 103/3/4
f 103/3/4 97/3/4 104/3/4
f 101/2/4 102/2/4 105/2/4
f 105/2/4 102/2/4 106/2/4
f 103/2/4 104/2/4 107/2/4
f 107/2/4 104/2/4 108/2/4
f 107/3/4 108/3/4 109/3/4
f 109/3/4 108/3/4 110/3/4
f 105/3/4 106/3/4 111/3/4
f 111/3/4 106/3/4 112/3/4
f 113/3/4 114/3/4 116/3/4
f 114/2/4 115/2/4 116/2/4
f 116/2/4 115/2/4 117/2/4
f 113/3/4 116/3/4 118/3/4
f 116/3/4 117/3/4 118/3/4
f 118/3/4 117/3/4 119/3/4
f 113/3/4 118/3/4 120/3/4
f 118/2/4 119/2/4 120/2/4
f 119/3/4 117/3/4 121/3/4
f 120/2/4 119/2/4 121/2/4
f 113/3/4 120/3/4 122/3/4
f 120/3/4 121/3/4 122/3/4
f 121/3/4 117/3/4 123/3/4
f 122/3/4 121/3/4 123/3/4
f 126/3/5 125/3/5 124/3/5
f 127/3/5 125/3/5 126/3/5
f 128/3/5 126/3/5 124/3/5
f 129/2/5 127/2/5 126/2/5
f 129/3/5 126/3/5 128/3/5
f 130/3/5 125/3/5 127/3/5
f 130/2/5 127/2/5 129/2/5
f 131/3/5 125/3/5 130/3/5
f 136/3/5 133/3/5 132/3/5
f 137/2/5 134/2/5 133/2/5
f 137/3/5 133/3/5 136/3/5
f 138/3/5 135/3/5 134/3/5
f 138/2/5 134/2/5 137/2/5
f 139/3/5 135/3/5 138/3/5
f 144/3/5 141/3/5 140/3/5
f 144/3/5 143/3/5 142/3/5
f 144/3/5 142/3/5 141/3/5
f 145/3/5 143/3/5 144/3/5
f 150/3/5 147/3/5 146/3/5
f 151/3/5 147/3/5 150/3/5
f 152/3/5 149/3/5 148/3/5
f 153/3/5 149/3/5 152/3/5
f 154/3/6 155/3/6 158/3/6
f 158/3/6 155/3/6 159/3/6
f 156/3/6 157/3/6 160/3/6
f 160/3/6 157/3/6 161/3/6
f 162/3/6 163/3/6 166/3/6
f 163/2/6 164/2/6 167/2/6
f 166/3/6 163/3/6 167/3/6
f 164/3/6 165/3/6 168/3/6
f 167/2/6 164/2/6 168/2/6
f 168/3/6 165/3/6 169/3/6
f 170/2/6 171/2/6 175/2/6
f 173/3/6 174/3/6 176/3/6
f 175/2/6 171/2/6 176/2/6
f 171/3/6 172/3/6 176/3/6
f 172/3/6 173/3/6 176/3/6
f 176/3/6 174/3/6 177/3/6
f 178/3/6 179/3/6 180/3/6
f 180/3/6 179/3/6 181/3/6
f 178/3/6 180/3/6 182/3/6
f 182/3/6 180/3/6 183/3/6
f 180/2/6 181/2/6 184/2/6
f 183/3/6 180/3/6 184/3/6
f 181/3/6 179/3/6 185/3/6
f 184/2/6 181/2/6 185/2/6
f 182/2/6 183/2/6 186/2/6
f 178/3/6 182/3/6 186/3/6
f 183/3/6 184/3/6 187/3/6
f 186/2/6 183/2/6 187/2/6
f 184/3/6 185/3/6 187/3/6
f 186/3/6 187/3/6 188/3/6
f 187/3/6 185/3/6 188/3/6
f 188/3/6 185/3/6 189/3/6
f 178/3/6 186/3/6 190/3/6
f 186/3/6 188/3/6 190/3/6
f 188/2/6 189/2/6 191/2/6
f 190/3/6 188/3/6 191/3/6
f 189/3/6 185/3/6 192/3/6
f 191/2/6 189/2/6 192/2/6
f 185/3/6 179/3/6 193/3/6
f 192/3/6 185/3/6 193/3/6
